<svg xmlns="http://www.w3.org/2000/svg" x="0" y="0" width="48" height="48" viewBox="0 0 48 48"><path fill="#EFD358" d="M41.98 30.567a1.008 1.008 0 0 0-.97-.258A19.04 19.04 0 0 1 36 31c-10.477 0-19-8.523-19-19 0-1.647.232-3.333.691-5.01a1 1 0 0 0-1.228-1.229C7.358 8.248 1 16.571 1 26c0 11.58 9.42 21 21 21 9.43 0 17.752-6.358 20.238-15.462a1 1 0 0 0-.258-.971z"/><path fill="#C6C6C6" d="M34 5c-1.654 0-3-1.346-3-3a1 1 0 1 0-2 0c0 1.654-1.346 3-3 3a1 1 0 1 0 0 2c1.654 0 3 1.346 3 3a1 1 0 1 0 2 0c0-1.654 1.346-3 3-3a1 1 0 1 0 0-2zm12 12c-1.654 0-3-1.346-3-3a1 1 0 1 0-2 0c0 1.654-1.346 3-3 3a1 1 0 1 0 0 2c1.654 0 3 1.346 3 3a1 1 0 1 0 2 0c0-1.654 1.346-3 3-3a1 1 0 1 0 0-2z"/></svg>