<svg xmlns="http://www.w3.org/2000/svg"><symbol id="icon-arrow-left" viewBox="0 0 24 24"><g stroke-width="2" fill="none" stroke="currentColor" stroke-miterlimit="10"><path data-cap="butt" data-color="color-2" d="M22 12H2"/><path stroke-linecap="square" d="M9 19l-7-7 7-7"/></g></symbol><symbol id="icon-arrow-right" viewBox="0 0 24 24"><g stroke-width="2" fill="none" stroke="currentColor" stroke-miterlimit="10"><path data-cap="butt" data-color="color-2" d="M2 12h20"/><path stroke-linecap="square" d="M15 5l7 7-7 7"/></g></symbol><symbol id="icon-avatar" viewBox="0 0 24 24"><g stroke-width="2" fill="none"><path data-color="color-2" d="M12 16a4 4 0 01-4-4v-2a4 4 0 018 0v2a4 4 0 01-4 4z"/><path data-cap="butt" data-color="color-2" d="M18.102 21.154C17.002 19.86 15.332 19 13.5 19h-3a5.99 5.99 0 00-4.6 2.147"/><circle stroke="currentColor" stroke-linecap="square" stroke-miterlimit="10" cx="12" cy="12" r="11"/></g></symbol><symbol id="icon-boldoakdesign" viewBox="0 0 53.1 71.3"><path d="M45.4 44.1c-4.5 1.9-6.2 2.8-8.8 4.1-2.5 1.2-2.2 2.6-.8 2.8 1.1.2 5.9-1 6.2 1.5.2 4.7-10.9 4.7-11.8 10.3-.3 1.9-1.2 4.7-3.8 7.6-1 1.1-2.6 1.2-3.7.2s-1.2-2.6-.2-3.7c1.9-2.2 2.5-4 2.5-5.1-.1-3-9.4-2.4-10.3-6.1-.8-3.4.5-2.9 3.8-2.5 3.3.5.5-2.4-1.5-3-1.2-.4-9.6-4-12.4-5.6-5.2-2.8-5.5-7.9-3.1-11.1 2.5-3.2 8.3.7 10.6 2.1 2.4 1.5 5.5 2 5.5 1.1 0-2.3-1.6-3.7-2.8-4.6-1.1-.8-5.6-2.2-8.2-3.9-2.4-1.6-5.8-5.9-2.1-9.6C8 15 15.5 20 17 20.7c1.6.8 2.5-.4 2-1.8-.4-1-3.4-6.2-4.2-8.8-.6-2.1-1.4-5.6.7-6.5 2.1-1 4.2.3 5.5 1.5 1.3 1.2 2 1.1 2.5.2.5-.8 1.6-5.9 5.4-5.2 4 .7 3.3 4.2 4.8 5.1 1.4.9 1.7-.8 3.7-.3 3.1.7 1 6.1-.4 9.1-1.4 2.9.2 3.2.9 2.6 1.8-1.5 7.4-6 10.1-3.3 5.6 5.6 1.4 11.4-1.6 12.9-4 2.2-8.7 2.8-8.9 5.7-.1 1.7-.3 3.6 8.3-1.1 10-5.4 9.7 9.1-.4 13.3z"/></symbol><symbol id="icon-button-pause" viewBox="0 0 24 24"><path d="M9 1H3a1 1 0 00-1 1v20a1 1 0 001 1h6a1 1 0 001-1V2a1 1 0 00-1-1zm12 0h-6a1 1 0 00-1 1v20a1 1 0 001 1h6a1 1 0 001-1V2a1 1 0 00-1-1z" fill="currentColor"/></symbol><symbol id="icon-button-play" viewBox="0 0 24 24"><path fill="currentColor" d="M20.555 11.168l-15-10A1 1 0 004 2v20a1 1 0 001.555.832l15-10a1.001 1.001 0 000-1.664z"/></symbol><symbol id="icon-category" viewBox="0 0 24 24"><g stroke-width="2" fill="none"><path data-color="color-2" d="M1 8h22"/><path stroke="currentColor" stroke-linecap="square" stroke-miterlimit="10" d="M23 23H1V1h9l2 3h11z"/></g></symbol><symbol id="icon-check-light" viewBox="0 0 24 24"><path d="M8.5 20a1.5 1.5 0 01-1.061-.439L.379 12.5 2.5 10.379l6 6 13-13L23.621 5.5 9.561 19.561A1.5 1.5 0 018.5 20z" fill="#fff"/></symbol><symbol id="icon-check" viewBox="0 0 24 24"><path d="M8.5 20a1.5 1.5 0 01-1.061-.439L.379 12.5 2.5 10.379l6 6 13-13L23.621 5.5 9.561 19.561A1.5 1.5 0 018.5 20z" fill="currentColor"/></symbol><symbol id="icon-chevron-down-small" viewBox="0 0 24 24"><path fill="none" stroke="currentColor" stroke-width="2" stroke-linecap="square" stroke-miterlimit="10" d="M16 10l-4 4-4-4"/></symbol><symbol id="icon-clock" viewBox="0 0 24 24"><g stroke-width="2" fill="none" stroke="currentColor" stroke-linecap="square" stroke-miterlimit="10"><circle cx="12" cy="12" r="11"/><path data-color="color-2" d="M12 6v6h6"/></g></symbol><symbol id="icon-close" viewBox="0 0 24 24"><path d="M19 5L5 19m14 0L5 5" stroke-width="2" fill="none" stroke="currentColor" stroke-linecap="square" stroke-miterlimit="10"/></symbol><symbol id="icon-comment-author" viewBox="0 0 12 12"><path d="M11.572 4.27l-3.54-.514L6.448.548a.521.521 0 00-.9 0l-1.58 3.208-3.54.514a.5.5 0 00-.277.853l2.562 2.5-.606 3.526a.5.5 0 00.726.527L6 10.008l3.167 1.665a.488.488 0 00.232.057.5.5 0 00.494-.584L9.287 7.62l2.562-2.5a.5.5 0 00-.277-.853z" fill="currentColor"/></symbol><symbol id="icon-edit" viewBox="0 0 24 24"><g stroke-width="2" fill="none"><path data-color="color-2" d="M2 23h20"/><path stroke="currentColor" stroke-linecap="square" stroke-miterlimit="10" d="M8 18l-5 1 1-5L16 2l4 4L8 18z"/></g></symbol><symbol id="icon-filter" viewBox="0 0 24 24"><path fill="none" stroke="currentColor" stroke-linecap="square" stroke-miterlimit="10" d="M22 4l-8 8v8l-4 2V12L2 4V1h20v3z" stroke-width="2"/></symbol><symbol id="icon-format-aside" viewBox="0 0 24 24"><g stroke-width="2"><path data-stroke="none" fill="currentColor" d="M16 23v-6h6z"/><path data-cap="butt" fill="none" stroke="currentColor" stroke-miterlimit="10" d="M16 23v-6h6"/><path fill="none" stroke="currentColor" stroke-linecap="square" stroke-miterlimit="10" d="M16 23H2V1h20v16z"/><path data-color="color-2" fill="none" d="M7 6h10M7 11h10M7 16h4"/></g></symbol><symbol id="icon-format-audio" viewBox="0 0 24 24"><g stroke-width="2" fill="none"><path data-color="color-2" d="M1 17V9a8.024 8.024 0 018-8h6a8.024 8.024 0 018 8v8"/><rect x="4" y="11" width="4" height="12" rx="2" stroke="currentColor" stroke-linecap="square" stroke-miterlimit="10"/><rect x="16" y="11" width="4" height="12" rx="2" stroke="currentColor" stroke-linecap="square" stroke-miterlimit="10"/></g></symbol><symbol id="icon-format-chat" viewBox="0 0 24 24"><g stroke-width="2" fill="none"><path data-color="color-2" d="M23 5v13h-4v4l-6-4h-1"/><path stroke="currentColor" stroke-linecap="square" stroke-miterlimit="10" d="M19 2H1v12h4v5l7-5h7V2z"/></g></symbol><symbol id="icon-format-gallery" viewBox="0 0 24 24"><g stroke-width="2"><path fill="none" stroke="currentColor" stroke-linecap="square" stroke-miterlimit="10" d="M1 5h22v18H1z"/><path fill="none" data-color="color-2" d="M6 1h12M6 19l9-8 4 8H6z"/><circle cx="7" cy="10" r="2" fill="#608CEE" data-cap="butt" data-color="color-2" data-stroke="none"/></g></symbol><symbol id="icon-format-image" viewBox="0 0 24 24"><g stroke-width="2" fill="none"><path data-cap="butt" data-color="color-2" d="M1 20l5-6 4 4 7-8 6 7"/><path stroke="currentColor" stroke-linecap="square" stroke-miterlimit="10" d="M1 3h22v18H1z"/><circle data-color="color-2" cx="9" cy="8" r="2"/></g></symbol><symbol id="icon-format-link" viewBox="0 0 24 24"><g stroke-width="2" fill="none"><path data-color="color-2" d="M13.4 10.6c2 2 2 5.1 0 7.1l-2.8 2.8c-2 2-5.1 2-7.1 0s-2-5.1 0-7.1L6 11"/><path stroke="currentColor" stroke-linecap="square" stroke-miterlimit="10" d="M10.6 13.4h0c-2-2-2-5.1 0-7.1l2.8-2.8c2-2 5.1-2 7.1 0h0c2 2 2 5.1 0 7.1L18 13"/></g></symbol><symbol id="icon-format-quote" viewBox="0 0 24 24"><path data-cap="butt" d="M1 12h8v10H1V12c0-4.708 1.75-7.656 5-9m9 9h8v10h-8V12c0-4.708 1.75-7.656 5-9" stroke-width="2" fill="none" stroke="currentColor" stroke-miterlimit="10"/></symbol><symbol id="icon-format-standard" viewBox="0 0 24 24"><g fill="none"><path data-color="color-2" d="M9 14h10M9 18h10M9 6h10v4H9z"/><path d="M3 23a2.006 2.006 0 01-2-2v-8h1M5 1v20a2.006 2.006 0 01-2 2h18a2.006 2.006 0 002-2V1z" stroke="currentColor" stroke-linecap="square" stroke-miterlimit="10"/></g></symbol><symbol id="icon-format-status" viewBox="0 0 24 24"><g stroke-width="2"><path data-cap="butt" data-color="color-2" d="M9.336 14l2.519 6.252a2 2 0 01-1.108 2.6 2 2 0 01-2.6-1.108L5 14" fill="none"/><path d="M11 6H5a4 4 0 000 8h6l8 4V2z" fill="none" stroke="currentColor" stroke-linecap="square" stroke-miterlimit="10"/><path data-stroke="none" d="M21 7v6a3 3 0 000-6z" fill="currentColor"/></g></symbol><symbol id="icon-format-video" viewBox="0 0 24 24"><g stroke-width="2" fill="none"><path d="M21 2a2 2 0 012 2v16a2 2 0 01-2 2H3a2 2 0 01-2-2V4a2 2 0 012-2z" stroke="currentColor" stroke-linecap="square" stroke-miterlimit="10"/><path data-color="color-2" d="M10 8l6 4-6 4V8z"/></g></symbol><symbol id="icon-heart" viewBox="0 0 48 48"><path fill="#E86C60" d="M43.192 6.808c-5.068-5.068-13.316-5.068-18.385 0-.281.281-.55.577-.807.887a12.648 12.648 0 00-.808-.888c-5.068-5.068-13.316-5.068-18.385 0s-5.068 13.316 0 18.385l18.485 18.485a.997.997 0 001.414 0l18.485-18.485c5.07-5.068 5.07-13.316.001-18.384z"/></symbol><symbol id="icon-info" viewBox="0 0 24 24"><g stroke-width="2"><circle cx="12" cy="12" r="11" fill="none" stroke="currentColor" stroke-linecap="square" stroke-miterlimit="10"/><path data-color="color-2" fill="none" d="M11.959 11v6"/><circle data-color="color-2" data-stroke="none" cx="11.959" cy="7" r="1"/></g></symbol><symbol id="icon-menu" viewBox="0 0 24 24"><g stroke-width="2" fill="none" stroke="currentColor" stroke-linecap="square" stroke-miterlimit="10"><path data-color="color-2" d="M1 12h22"/><path d="M1 5h22M1 19h22"/></g></symbol><symbol id="icon-moon-full" viewBox="0 0 48 48"><path fill="#EFD358" d="M24 46C11.869 46 2 36.131 2 24S11.869 2 24 2s22 9.869 22 22-9.869 22-22 22z"/></symbol><symbol id="icon-moon-stars" viewBox="0 0 48 48"><path fill="#EFD358" d="M41.98 30.567a1.008 1.008 0 00-.97-.258A19.04 19.04 0 0136 31c-10.477 0-19-8.523-19-19 0-1.647.232-3.333.691-5.01a1 1 0 00-1.228-1.229C7.358 8.248 1 16.571 1 26c0 11.58 9.42 21 21 21 9.43 0 17.752-6.358 20.238-15.462a1 1 0 00-.258-.971z"/><path fill="#C6C6C6" d="M34 5c-1.654 0-3-1.346-3-3a1 1 0 10-2 0c0 1.654-1.346 3-3 3a1 1 0 100 2c1.654 0 3 1.346 3 3a1 1 0 102 0c0-1.654 1.346-3 3-3a1 1 0 100-2zm12 12c-1.654 0-3-1.346-3-3a1 1 0 10-2 0c0 1.654-1.346 3-3 3a1 1 0 100 2c1.654 0 3 1.346 3 3a1 1 0 102 0c0-1.654 1.346-3 3-3a1 1 0 100-2z"/></symbol><symbol id="icon-moon" viewBox="0 0 48 48"><path fill="#EFD358" d="M43.98 28.567a1.005 1.005 0 00-.97-.258A19.04 19.04 0 0138 29c-10.477 0-19-8.523-19-19 0-1.647.232-3.333.691-5.01a1 1 0 00-1.228-1.229C9.358 6.248 3 14.571 3 24c0 11.58 9.42 21 21 21 9.43 0 17.752-6.358 20.238-15.462a1 1 0 00-.258-.971z"/></symbol><symbol id="icon-pin" viewBox="0 0 24 24"><g stroke-width="2" fill="none"><path data-cap="butt" stroke="currentColor" stroke-miterlimit="10" d="M4.008 11.008l12.836-7.164m-3.852 16.148l7.164-12.836"/><path stroke="currentColor" stroke-linecap="square" stroke-miterlimit="10" d="M15 2l7 7"/><path data-color="color-2" d="M8.5 15.5L2 22"/><path stroke="currentColor" stroke-linecap="square" stroke-miterlimit="10" d="M2 9l13 13"/></g></symbol><symbol id="icon-search" viewBox="0 0 24 24"><g stroke-width="2" fill="none" stroke="currentColor" stroke-linecap="square" stroke-miterlimit="10"><path data-color="color-2" d="M22 22l-6.344-6.344"/><circle cx="10" cy="10" r="8"/></g></symbol><symbol id="icon-sun" viewBox="0 0 48 48"><path fill="#EA9860" d="M24 9a1 1 0 01-1-1V2a1 1 0 112 0v6a1 1 0 01-1 1zm-10.607 4.393a1 1 0 01-1.414 0L7.737 9.151A1 1 0 119.15 7.737l4.242 4.242a1 1 0 010 1.414zM9 24a1 1 0 01-1 1H2a1 1 0 110-2h6a1 1 0 011 1zm4.393 10.607a1 1 0 010 1.414l-4.242 4.242a1 1 0 11-1.414-1.414l4.242-4.242a1 1 0 011.414 0zM24 39a1 1 0 011 1v6a1 1 0 11-2 0v-6a1 1 0 011-1zm10.607-4.393a1 1 0 011.414 0l4.242 4.242a1 1 0 11-1.414 1.414l-4.242-4.242a1 1 0 010-1.414zM39 24a1 1 0 011-1h6a1 1 0 110 2h-6a1 1 0 01-1-1zm-4.393-10.607a1 1 0 010-1.414l4.242-4.242a1 1 0 111.414 1.414l-4.242 4.242a1 1 0 01-1.414 0z"/><path fill="#EFD358" d="M24 37c-7.168 0-13-5.832-13-13s5.832-13 13-13 13 5.832 13 13-5.832 13-13 13z"/></symbol><symbol id="icon-tag" viewBox="0 0 24 24"><g stroke-width="2" fill="none"><path stroke="currentColor" stroke-linecap="square" stroke-miterlimit="10" d="M13 22l9-9L10 1H1v9z"/><circle data-color="color-2" cx="7" cy="7" r="2"/></g></symbol></svg>