<svg width="200" height="200" xmlns="http://www.w3.org/2000/svg" version="1.1" x="0" y="0" viewBox="0 0 53.1 71.3" xml:space="preserve"><path d="M45.4 44.1c-4.5 1.9-6.2 2.8-8.8 4.1-2.5 1.2-2.2 2.6-.8 2.8 1.1.2 5.9-1 6.2 1.5.2 4.7-10.9 4.7-11.8 10.3-.3 1.9-1.2 4.7-3.8 7.6-1 1.1-2.6 1.2-3.7.2s-1.2-2.6-.2-3.7c1.9-2.2 2.5-4 2.5-5.1-.1-3-9.4-2.4-10.3-6.1-.8-3.4.5-2.9 3.8-2.5 3.3.5.5-2.4-1.5-3-1.2-.4-9.6-4-12.4-5.6-5.2-2.8-5.5-7.9-3.1-11.1 2.5-3.2 8.3.7 10.6 2.1 2.4 1.5 5.5 2 5.5 1.1 0-2.3-1.6-3.7-2.8-4.6-1.1-.8-5.6-2.2-8.2-3.9-2.4-1.6-5.8-5.9-2.1-9.6C8 15 15.5 20 17 20.7c1.6.8 2.5-.4 2-1.8-.4-1-3.4-6.2-4.2-8.8-.6-2.1-1.4-5.6.7-6.5 2.1-1 4.2.3 5.5 1.5 1.3 1.2 2 1.1 2.5.2.5-.8 1.6-5.9 5.4-5.2 4 .7 3.3 4.2 4.8 5.1 1.4.9 1.7-.8 3.7-.3 3.1.7 1 6.1-.4 9.1-1.4 2.9.2 3.2.9 2.6 1.8-1.5 7.4-6 10.1-3.3 5.6 5.6 1.4 11.4-1.6 12.9-4 2.2-8.7 2.8-8.9 5.7-.1 1.7-.3 3.6 8.3-1.1 10-5.4 9.7 9.1-.4 13.3z"/></svg>