<svg xmlns="http://www.w3.org/2000/svg" height="48" width="48" viewBox="0 0 48 48"><title>sun</title><g fill="currentColor" class="nc-icon-wrapper"><path data-color="color-2" d="M6,23H2c-0.553,0-1,0.448-1,1s0.447,1,1,1h4c0.553,0,1-0.448,1-1S6.553,23,6,23z"></path> <path data-color="color-2" d="M10.565,11.979c0.195,0.195,0.451,0.293,0.707,0.293s0.512-0.098,0.707-0.293 c0.391-0.391,0.391-1.024,0-1.414L9.15,7.737c-0.391-0.391-1.023-0.391-1.414,0s-0.391,1.024,0,1.414L10.565,11.979z"></path> <path data-color="color-2" d="M24,7c0.553,0,1-0.448,1-1V2c0-0.552-0.447-1-1-1s-1,0.448-1,1v4C23,6.552,23.447,7,24,7z"></path> <path data-color="color-2" d="M38.85,7.737l-2.829,2.828c-0.391,0.39-0.391,1.023,0,1.414 c0.195,0.195,0.451,0.293,0.707,0.293s0.512-0.098,0.707-0.293l2.829-2.828c0.391-0.39,0.391-1.023,0-1.414S39.24,7.346,38.85,7.737 z"></path> <path data-color="color-2" d="M46,23h-4c-0.553,0-1,0.448-1,1s0.447,1,1,1h4c0.553,0,1-0.448,1-1S46.553,23,46,23z"></path> <path data-color="color-2" d="M37.435,36.021c-0.391-0.391-1.023-0.391-1.414,0s-0.391,1.024,0,1.414l2.829,2.828 c0.195,0.195,0.451,0.293,0.707,0.293s0.512-0.098,0.707-0.293c0.391-0.391,0.391-1.024,0-1.414L37.435,36.021z"></path> <path data-color="color-2" d="M24,41c-0.553,0-1,0.448-1,1v4c0,0.552,0.447,1,1,1s1-0.448,1-1v-4 C25,41.448,24.553,41,24,41z"></path> <path data-color="color-2" d="M10.565,36.021l-2.829,2.828c-0.391,0.39-0.391,1.023,0,1.414 c0.195,0.195,0.451,0.293,0.707,0.293s0.512-0.098,0.707-0.293l2.829-2.828c0.391-0.39,0.391-1.023,0-1.414 S10.956,35.63,10.565,36.021z"></path> <path fill="currentColor" d="M24,11c-7.168,0-13,5.832-13,13s5.832,13,13,13s13-5.832,13-13S31.168,11,24,11z"></path></g></svg>