<svg xmlns="http://www.w3.org/2000/svg" x="0" y="0" width="48" height="48" viewBox="0 0 48 48"><path fill="#EA9860" d="M24 9a1 1 0 0 1-1-1V2a1 1 0 1 1 2 0v6a1 1 0 0 1-1 1zm-10.607 4.393a1 1 0 0 1-1.414 0L7.737 9.151A1 1 0 1 1 9.15 7.737l4.242 4.242a1 1 0 0 1 0 1.414zM9 24a1 1 0 0 1-1 1H2a1 1 0 1 1 0-2h6a1 1 0 0 1 1 1zm4.393 10.607a1 1 0 0 1 0 1.414l-4.242 4.242a1 1 0 1 1-1.414-1.414l4.242-4.242a1 1 0 0 1 1.414 0zM24 39a1 1 0 0 1 1 1v6a1 1 0 1 1-2 0v-6a1 1 0 0 1 1-1zm10.607-4.393a1 1 0 0 1 1.414 0l4.242 4.242a1 1 0 1 1-1.414 1.414l-4.242-4.242a1 1 0 0 1 0-1.414zM39 24a1 1 0 0 1 1-1h6a1 1 0 1 1 0 2h-6a1 1 0 0 1-1-1zm-4.393-10.607a1 1 0 0 1 0-1.414l4.242-4.242a1 1 0 1 1 1.414 1.414l-4.242 4.242a1 1 0 0 1-1.414 0z"/><path fill="#EFD358" d="M24 37c-7.168 0-13-5.832-13-13s5.832-13 13-13 13 5.832 13 13-5.832 13-13 13z"/></svg>